<?xml version="1.0" encoding="UTF-8"?>
<svg id="_图层_1" data-name="图层_1" xmlns="http://www.w3.org/2000/svg" version="1.1" viewBox="0 0 110 106">
  <!-- Generator: Adobe Illustrator 29.0.1, SVG Export Plug-In . SVG Version: 2.1.0 Build 192)  -->
  <defs>
    <style>
      .st0 {
        fill-rule: evenodd;
      }
    </style>
  </defs>
  <path class="st0" d="M9.6,98.7c-1.3,0-1.3-1.9,0-1.9h2.5V30.7c0-.5.4-1,1-1h9.2c.5,0,1,.4,1,1v66.2h2.8l.3-2.8c0-.1,0-.3.1-.4l22.3-39.7v-.8h-3.3c-1.6,0-2.8-1.3-2.8-2.8v-11.4h-2.6c-.5,0-1-.4-1-1v-9.5c0-.5.4-1,1-1h2.6v-2.8c0-1.6,1.3-2.8,2.8-2.8h2.9l.9-2.8c.3-1,1.3-1.6,2.3-1.6h6.8c1,0,2,.6,2.3,1.6l.9,2.8h2.9c1.6,0,2.8,1.3,2.8,2.8v2.8h2.6c.5,0,1,.4,1,1v9.5c0,.5-.4,1-1,1h-2.6v11.4c0,1.6-1.3,2.8-2.8,2.8h-3.3v.8l22.3,39.7c0,.1.1.2.1.4l.3,2.9h16.5c1.3,0,1.3,1.9,0,1.9h-16.9c-.2.1-.5.1-.8,0H27.3c-.1,0-.3,0-.5,0-.1,0-.2,0-.3,0H9.6ZM79.9,26.2c2.5-1.4,3.9-4,4-6.9,0-1.9-.5-3.9-1.5-5.7l-8.1,7,5.6,5.6ZM81.8,11.5c.2-.2.3-.2.5-.4h0s0,0,0,0h0c.2-.2.2-.6,0-.9l-1.2-1.2h0c-.2-.2-.6-.3-.8,0h0s0,0,0,0l-8.1,9.3.9.9,8.8-7.7ZM83.8,12.2c.8-.9.7-2.2,0-3.2l-1.5-1.5h0c-.9-.8-2.3-.9-3.3-.1-5.2-3.2-12.1-2.7-15.4,2.5-.7-.7-1.1-1.2-2.2-1.2-2.1,0-3.2,2.6-1.7,4.1l18.8,18.8c1.5,1.5,4.1.4,4.1-1.7s-.6-1.6-1.3-2.3c5.2-3.3,5.7-10.2,2.5-15.3h0ZM65,11.3c.1-.2.2-.4.4-.6,2.8-4,8.2-4.2,12.3-1.8l-7,8.1-5.7-5.7ZM80.6,29.5l-18.8-18.8c-.5-.5-1.1.2-.7.7l18.8,18.8c.5.5,1.1-.2.7-.7h0ZM42.6,36.9v-7.6h-1.7v7.6h1.7ZM55,29.6c-4.3,0-7.8,3.5-7.8,7.8s3.5,7.8,7.8,7.8,7.8-3.5,7.8-7.8-3.5-7.8-7.8-7.8ZM59.1,33.3c-2.3-2.3-6-2.3-8.3,0-2.3,2.3-2.3,6,0,8.3s6,2.3,8.3,0,2.3-6,0-8.3ZM29.9,96.8h23.6l-.9-2.1c0-.1-.1-.3-.1-.5v-36.6h0l-21.6,38.4c-.2.3-.6.5-.9.8h0ZM50.2,57.7c-.5,0-.9,0-1.2-.3l-20.8,37-.2,1.5,1.2-.9,20.9-37.3ZM61,57.3c-.3.4-.7.3-1.2.3l20.9,37.3,1.2.9-.2-1.5-20.8-37ZM57.6,57.7h0v36.6h0c0,.1,0,.3,0,.4l-1,2.2h23.6c-.3-.2-.7-.5-.9-.8l-21.6-38.4ZM55.6,94.1v-36.4h-1.2v36.4l.6,1.4.6-1.4ZM59.3,53.1h-8.6v2.7h8.6v-2.7ZM58.4,19.2h-6.8c-.2,0-.4.1-.5.3l-.7,2.3h9.3l-.7-2.3c0-.2-.3-.3-.5-.3ZM69.1,29.3h-1.7v7.6h1.7v-7.6ZM64.6,23.6h-19.1c-.5,0-.9.4-.9.9v25.7c0,.5.4.9.9.9h19.1c.5,0,.9-.4.9-.9v-25.7c0-.5-.4-.9-.9-.9h0ZM21.3,37.7h-4.3c-1.3,0-1.3-1.9,0-1.9h4.3v-4.1h-7.3v65.2h7.3v-4.1h-2.6c-1.3,0-1.3-1.9,0-1.9h2.6v-6h-4.3c-1.3,0-1.3-1.9,0-1.9h4.3v-6h-2.6c-1.3,0-1.3-1.9,0-1.9h2.6v-6h-4.3c-1.3,0-1.3-1.9,0-1.9h4.3v-6h-2.6c-1.3,0-1.3-1.9,0-1.9h2.6v-6h-4.3c-1.3,0-1.3-1.9,0-1.9h4.3v-6h-2.6c-1.3,0-1.3-1.9,0-1.9h2.6v-6Z"/>
</svg>