<?xml version="1.0" encoding="UTF-8"?>
<svg id="_图层_1" data-name="图层_1" xmlns="http://www.w3.org/2000/svg" version="1.1" viewBox="0 0 64 71.6">
  <!-- Generator: Adobe Illustrator 29.0.1, SVG Export Plug-In . SVG Version: 2.1.0 Build 192)  -->
  <path d="M2.1,48.3s0,0,0,0c0,0,0,0,0,0l4,8c.2.3.5.6.9.6s.7-.2.9-.6l4-8s0,0,0,0c0,0,0,0,0,0,0,0,0-.2,0-.3,0,0,0,0,0,0V12c0-2.8-2.2-5-5-5s-5,2.2-5,5v36s0,0,0,0c0,.1,0,.2,0,.3ZM10,47h-2v-30h2v30ZM6,47h-2v-30h2v30ZM7,53.8l-2.4-4.8h4.8l-2.4,4.8ZM4,12c0-1.7,1.3-3,3-3s3,1.3,3,3v3h-6v-3Z"/>
  <path d="M18.1,61.4c.2.4.5.6.9.6h42c.6,0,1-.4,1-1V19c0-.4-.2-.8-.6-.9-.4-.2-.8,0-1.1.2l-3.3,3.3v-6.6c0-.6-.4-1-1-1h-11V3c0-.6-.4-1-1-1h-28c-.6,0-1,.4-1,1v48c0,.6.4,1,1,1h10.6l-8.3,8.3c-.3.3-.4.7-.2,1.1ZM55,16v7.6l-10,10v-17.6h10ZM17,4h26v31.6l-4.5,4.5c-.1,0-.3-.1-.5-.1h-16c-.6,0-1,.4-1,1v9h-4V4ZM31,47.6v-5.6h5.6l-5.6,5.6ZM23,50v-8h6v7.6l-.4.4h-5.6ZM29,52.4l1.3,1.3,1.4-1.4-1.3-1.3.3-.3,4.3-4.3,1.3,1.3,1.4-1.4-1.3-1.3,2.3-2.3,2.3-2.3,1.3,1.3,1.4-1.4-1.3-1.3,2.3-2.3,2.3-2.3,1.3,1.3,1.4-1.4-1.3-1.3,4.6-4.6,1.3,1.3,1.4-1.4-1.3-1.3,2.3-2.3,3.3-3.3v38.6H21.4l7.6-7.6Z"/>
  <path d="M56.4,33.1c-.4-.2-.8,0-1.1.2l-22,22c-.3.3-.4.7-.2,1.1.2.4.5.6.9.6h22c.6,0,1-.4,1-1v-22c0-.4-.2-.8-.6-.9ZM55,55h-18.6l18.6-18.6v18.6Z"/>
  <path d="M20,14h4c.6,0,1-.4,1-1v-6c0-.6-.4-1-1-1h-4c-.6,0-1,.4-1,1v6c0,.6.4,1,1,1ZM21,8h2v4h-2v-4Z"/>
  <path d="M28,14h4c.6,0,1-.4,1-1v-6c0-.6-.4-1-1-1h-4c-.6,0-1,.4-1,1v6c0,.6.4,1,1,1ZM29,8h2v4h-2v-4Z"/>
  <path d="M36,14h4c.6,0,1-.4,1-1v-6c0-.6-.4-1-1-1h-4c-.6,0-1,.4-1,1v6c0,.6.4,1,1,1ZM37,8h2v4h-2v-4Z"/>
  <path d="M20,26h4c.6,0,1-.4,1-1v-6c0-.6-.4-1-1-1h-4c-.6,0-1,.4-1,1v6c0,.6.4,1,1,1ZM21,20h2v4h-2v-4Z"/>
  <path d="M28,26h4c.6,0,1-.4,1-1v-6c0-.6-.4-1-1-1h-4c-.6,0-1,.4-1,1v6c0,.6.4,1,1,1ZM29,20h2v4h-2v-4Z"/>
  <path d="M36,26h4c.6,0,1-.4,1-1v-6c0-.6-.4-1-1-1h-4c-.6,0-1,.4-1,1v6c0,.6.4,1,1,1ZM37,20h2v4h-2v-4Z"/>
  <path d="M24,38c.6,0,1-.4,1-1v-6c0-.6-.4-1-1-1h-4c-.6,0-1,.4-1,1v6c0,.6.4,1,1,1h4ZM21,32h2v4h-2v-4Z"/>
  <path d="M28,38h4c.6,0,1-.4,1-1v-6c0-.6-.4-1-1-1h-4c-.6,0-1,.4-1,1v6c0,.6.4,1,1,1ZM29,32h2v4h-2v-4Z"/>
  <path d="M36,38h4c.6,0,1-.4,1-1v-6c0-.6-.4-1-1-1h-4c-.6,0-1,.4-1,1v6c0,.6.4,1,1,1ZM37,32h2v4h-2v-4Z"/>
  <path d="M48,26h4c.6,0,1-.4,1-1v-6c0-.6-.4-1-1-1h-4c-.6,0-1,.4-1,1v6c0,.6.4,1,1,1ZM49,20h2v4h-2v-4Z"/>
  <rect x="6" y="59" width="2" height="2"/>
  <rect x="10" y="59" width="2" height="2"/>
  <rect x="14" y="59" width="2" height="2"/>
</svg>