<?xml version="1.0" encoding="UTF-8"?>
<svg id="_图层_1" data-name="图层_1" xmlns="http://www.w3.org/2000/svg" version="1.1" viewBox="0 0 100 97.3">
  <!-- Generator: Adobe Illustrator 29.0.1, SVG Export Plug-In . SVG Version: 2.1.0 Build 192)  -->
  <defs>
    <style>
      .st0 {
        stroke-width: 1.7px;
      }

      .st0, .st1 {
        fill: none;
        stroke: #000;
      }

      .st0, .st1, .st2 {
        stroke-miterlimit: 10;
      }

      .st1 {
        stroke-width: 1.5px;
      }

      .st3 {
        display: none;
      }

      .st2 {
        stroke: #fff;
        stroke-width: 2px;
      }
    </style>
  </defs>
  <g class="st3">
    <polygon points="86.1 95 23 95 23 89.9 24.5 89.9 24.5 93.5 84.6 93.5 84.6 15.2 81 15.2 81 13.8 86.1 13.8 86.1 95"/>
    <polygon points="81.7 90.6 18.6 90.6 18.6 85.5 20.1 85.5 20.1 89.1 80.2 89.1 80.2 10.9 76.3 10.9 76.3 9.4 81.7 9.4 81.7 90.6"/>
    <path d="M77,86.2H13.9V5h63.1v81.2ZM15.4,84.8h60.2V6.5H15.4v78.3Z"/>
    <rect x="27.4" y="22.7" width="1.7" height="8.4" transform="translate(-7.5 11.2) rotate(-19.9)"/>
    <polygon points="23.7 14.5 32.9 24.7 27 23.6 23.2 28.2 23.7 14.5"/>
  </g>
  <g class="st3">
    <g>
      <path d="M85.6,79.4l-.8-1.5c4.6-2.5,7.5-7.4,7.5-12.6v-18.1c0-7.9-6.4-14.4-14.4-14.4H22.1c-7.9,0-14.4,6.4-14.4,14.4v18.1c0,5.3,2.9,10.1,7.5,12.6l-.8,1.5c-5.2-2.8-8.4-8.2-8.4-14.1v-18.1c0-8.9,7.2-16.1,16.1-16.1h55.8c8.9,0,16.1,7.2,16.1,16.1v18.1c0,5.9-3.2,11.3-8.4,14.1Z"/>
      <path d="M79.2,72.2h-1.7c0-4.1-2.4-7.4-5.4-7.4H27.9c-3,0-5.4,3.3-5.4,7.4h-1.7c0-5,3.2-9.1,7.1-9.1h44.2c3.9,0,7.1,4.1,7.1,9.1Z"/>
      <path d="M80.4,55.5H19.6c-5.2,0-9.4-5.5-9.4-12.2s4.2-12.2,9.4-12.2h60.8c5.2,0,9.4,5.5,9.4,12.2s-4.2,12.2-9.4,12.2ZM19.6,32.8c-4.2,0-7.7,4.7-7.7,10.5s3.5,10.5,7.7,10.5h60.8c4.2,0,7.7-4.7,7.7-10.5s-3.5-10.5-7.7-10.5H19.6Z"/>
      <path class="st0" d="M21.7,79.1"/>
      <polygon points="95.3 93.7 4.7 93.7 10.1 88.7 11.2 90 9 92 91 92 88.8 90 89.9 88.8 95.3 93.7"/>
      <polygon points="95.3 90.2 4.7 90.2 9.9 85.4 11.1 86.6 9 88.5 91 88.5 88.9 86.6 90 85.4 95.3 90.2"/>
      <path d="M95.3,86.8H4.7l16.6-15.4h57.3l16.6,15.4ZM9,85.1h81.9l-13-12H22l-13,12Z"/>
      <path d="M79.2,32.8H20.8V6.3h58.3v26.5ZM22.5,31.1h55V8H22.5v23.1Z"/>
      <path d="M76.4,62.2c-1.4,0-2.5-1.1-2.5-2.5s1.1-2.5,2.5-2.5,2.5,1.1,2.5,2.5-1.1,2.5-2.5,2.5ZM76.4,58.4c-.7,0-1.3.6-1.3,1.3s.6,1.3,1.3,1.3,1.3-.6,1.3-1.3-.6-1.3-1.3-1.3Z"/>
      <path d="M82.1,62.2c-1.4,0-2.5-1.1-2.5-2.5s1.1-2.5,2.5-2.5,2.5,1.1,2.5,2.5-1.1,2.5-2.5,2.5ZM82.1,58.4c-.7,0-1.3.6-1.3,1.3s.6,1.3,1.3,1.3,1.3-.6,1.3-1.3-.6-1.3-1.3-1.3Z"/>
    </g>
  </g>
  <g class="st3">
    <path d="M13.4,49.4c-2.5,0-4.6-2.1-4.6-4.6s2.1-4.6,4.6-4.6,4.6,2.1,4.6,4.6-2.1,4.6-4.6,4.6ZM13.4,41.7c-1.7,0-3.1,1.4-3.1,3.1s1.4,3.1,3.1,3.1,3.1-1.4,3.1-3.1-1.4-3.1-3.1-3.1Z"/>
    <path d="M21.7,59.8h-1.5c0-5.7-2.9-10.3-6.5-10.3s-6.5,4.6-6.5,10.3h-1.5c0-6.5,3.6-11.8,8-11.8,4.4,0,8,5.3,8,11.8Z"/>
    <path d="M27.9,49.4c-2.5,0-4.6-2.1-4.6-4.6s2.1-4.6,4.6-4.6,4.6,2.1,4.6,4.6-2.1,4.6-4.6,4.6ZM27.9,41.7c-1.7,0-3.1,1.4-3.1,3.1s1.4,3.1,3.1,3.1,3.1-1.4,3.1-3.1c0-1.7-1.4-3.1-3.1-3.1Z"/>
    <path d="M36.2,59.8h-1.5c0-5.7-2.9-10.3-6.5-10.3s-6.5,4.6-6.5,10.3h-1.5c0-6.5,3.6-11.8,8-11.8,4.4,0,8,5.3,8,11.8Z"/>
    <path d="M42.4,49.4c-2.5,0-4.6-2.1-4.6-4.6s2.1-4.6,4.6-4.6,4.6,2.1,4.6,4.6-2.1,4.6-4.6,4.6ZM42.4,41.7c-1.7,0-3.1,1.4-3.1,3.1s1.4,3.1,3.1,3.1,3.1-1.4,3.1-3.1-1.4-3.1-3.1-3.1Z"/>
    <path d="M50.7,59.8h-1.5c0-5.7-2.9-10.3-6.5-10.3s-6.5,4.6-6.5,10.3h-1.5c0-6.5,3.6-11.8,8-11.8s8,5.3,8,11.8Z"/>
    <path d="M56.9,49.4c-2.5,0-4.6-2.1-4.6-4.6s2.1-4.6,4.6-4.6,4.6,2.1,4.6,4.6c0,2.5-2.1,4.6-4.6,4.6ZM56.9,41.7c-1.7,0-3.1,1.4-3.1,3.1s1.4,3.1,3.1,3.1,3.1-1.4,3.1-3.1c0-1.7-1.4-3.1-3.1-3.1Z"/>
    <path d="M65.2,59.8h-1.5c0-5.7-2.9-10.3-6.5-10.3s-6.5,4.6-6.5,10.3h-1.5c0-6.5,3.6-11.8,8-11.8,4.4,0,8,5.3,8,11.8Z"/>
    <path d="M71.4,49.4c-2.5,0-4.6-2.1-4.6-4.6s2.1-4.6,4.6-4.6,4.6,2.1,4.6,4.6c0,2.5-2.1,4.6-4.6,4.6ZM71.4,41.7c-1.7,0-3.1,1.4-3.1,3.1s1.4,3.1,3.1,3.1,3.1-1.4,3.1-3.1c0-1.7-1.4-3.1-3.1-3.1Z"/>
    <path d="M79.7,59.8h-1.5c0-5.7-2.9-10.3-6.5-10.3s-6.5,4.6-6.5,10.3h-1.5c0-6.5,3.6-11.8,8-11.8,4.4,0,8,5.3,8,11.8Z"/>
    <path d="M85.9,49.4c-2.5,0-4.6-2.1-4.6-4.6s2.1-4.6,4.6-4.6,4.6,2.1,4.6,4.6-2.1,4.6-4.6,4.6ZM85.9,41.7c-1.7,0-3.1,1.4-3.1,3.1s1.4,3.1,3.1,3.1,3.1-1.4,3.1-3.1-1.4-3.1-3.1-3.1Z"/>
    <path d="M94.3,59.8h-1.5c0-5.7-2.9-10.3-6.5-10.3s-6.5,4.6-6.5,10.3h-1.5c0-6.5,3.6-11.8,8-11.8,4.4,0,8,5.3,8,11.8Z"/>
  </g>
  <g class="st3">
    <path d="M74.2,95H25.8c-3.5,0-6.3-2.9-6.3-6.4V16.3c0-3.5,2.8-6.4,6.3-6.4h16.7v1.8h-16.7c-2.5,0-4.5,2.1-4.5,4.6v72.3c0,2.5,2,4.6,4.5,4.6h48.3c2.5,0,4.5-2.1,4.5-4.6V16.3c0-2.5-2-4.6-4.5-4.6h-16.9v-1.8h16.9c3.5,0,6.3,2.9,6.3,6.4v72.3c0,3.5-2.8,6.4-6.3,6.4Z"/>
    <path d="M69.8,23.2H30.3l-.3-.5c-.3-.5-.5-1.7.2-2.8,1.3-2.1,5.1-3.4,11.4-3.6v-6.1l.7-.2s2.1-.6,2.8-2c.2-.4,2-3.6,4.7-3.4,1.6,0,3,1.2,4.1,3.4.4.5,2.2,2.4,3.4,2l.3.9h.6v5.5c4.6,0,7.9.8,9.9,2.7,1.6,1.5,1.7,3.1,1.7,3.3v.9ZM31.6,21.4h36c-.7-1.3-3.1-3.5-10.3-3.2h-1s0-6.4,0-6.4c-2.1-.4-3.8-2.6-4-2.9-.7-1.2-1.6-2.6-2.6-2.6-1.3,0-2.7,1.8-3,2.5-.8,1.5-2.3,2.3-3.2,2.6v6.6h-.9c-8.3.2-10.3,2-10.8,2.7-.1.2-.2.4-.2.6Z"/>
    <path d="M49.8,16.8c-1.7,0-3-1.3-3-3s1.3-3,3-3,3,1.4,3,3c0,1.7-1.4,3-3,3ZM49.8,12.6c-.6,0-1.2.5-1.2,1.2s.5,1.2,1.2,1.2,1.2-.5,1.2-1.2c0-.6-.5-1.2-1.2-1.2Z"/>
  </g>
  <g class="st3">
    <polygon points="84.7 95.1 14.8 95.1 14.8 5.2 71.2 5.2 71.2 7.2 16.8 7.2 16.8 93.1 82.7 93.1 82.7 18.4 84.7 18.4 84.7 95.1"/>
    <path class="st2" d="M83.7,6.2"/>
    <path d="M85.2,19.3h-14.6V4.9l14.6,14.4ZM72.7,17.3h7.6l-7.6-7.6v7.6Z"/>
    <circle cx="30.4" cy="38.3" r="2.5"/>
    <circle cx="30.4" cy="46.7" r="2.5"/>
    <path d="M33,55c0,1.4-1.1,2.5-2.5,2.5s-2.5-1.1-2.5-2.5,1.1-2.5,2.5-2.5,2.5,1.1,2.5,2.5Z"/>
    <rect x="35.6" y="36.3" width="34.3" height="4"/>
    <rect x="35.6" y="44.6" width="34.3" height="4"/>
    <rect x="35.6" y="53" width="34.3" height="4"/>
  </g>
  <g class="st3">
    <path d="M94.9,84.9H5.1V15.1h89.7s0,69.8,0,69.8ZM7.2,82.9h85.7V17.1H7.2v65.8Z"/>
    <rect x="6.1" y="34.9" width="87.7" height="1"/>
    <rect x="6.1" y="40.4" width="87.7" height="1"/>
    <rect x="6.1" y="45.9" width="87.7" height="1"/>
    <rect x="6.1" y="51.4" width="87.7" height="1"/>
    <rect x="6.1" y="56.8" width="87.7" height="1"/>
    <rect x="6.1" y="62.3" width="87.7" height="1"/>
    <rect x="6.1" y="67.8" width="87.7" height="1"/>
    <rect x="6.1" y="73.3" width="87.7" height="1"/>
    <rect x="6.1" y="78.7" width="87.7" height="1"/>
    <rect x="93.3" y="35.4" width="1" height="48.5"/>
    <rect x="82.4" y="35.4" width="1" height="48.5"/>
    <rect x="71.4" y="35.4" width="1" height="48.5"/>
    <rect x="60.5" y="35.4" width="1" height="48.5"/>
    <rect x="49.5" y="35.4" width="1" height="48.5"/>
    <rect x="38.5" y="35.4" width="1" height="48.5"/>
    <rect x="27.6" y="35.4" width="1" height="48.5"/>
    <rect x="16.6" y="35.4" width="1" height="48.5"/>
    <rect x="5.6" y="35.4" width="1" height="48.5"/>
    <rect x="10.9" y="29.5" width="13.9" height="1.9"/>
  </g>
  <g class="st3">
    <path class="st1" d="M69.8,54.1"/>
    <polygon points="70.5 77.5 5 77.5 5 26.5 70.5 26.5 70.5 28.2 69.1 28.2 69.1 28 6.5 28 6.5 76 69.1 76 69.1 54.1 70.5 54.1 70.5 77.5"/>
    <rect x="5.7" y="41" width="52.2" height=".7"/>
    <rect x="5.7" y="45" width="54.7" height=".7"/>
    <rect x="5.7" y="49" width="57.8" height=".7"/>
    <rect x="5.7" y="53" width="62.6" height=".7"/>
    <rect x="5.7" y="57" width="64.1" height=".7"/>
    <rect x="5.7" y="61" width="64.1" height=".7"/>
    <rect x="5.7" y="65" width="64.1" height=".7"/>
    <rect x="5.7" y="69" width="64.1" height=".7"/>
    <rect x="5.7" y="73" width="64.1" height=".7"/>
    <rect x="69.4" y="54.1" width=".7" height="22.6"/>
    <rect x="61.4" y="47.2" width=".7" height="29.5"/>
    <rect x="53.4" y="41.3" width=".7" height="35.4"/>
    <rect x="45.4" y="41.3" width=".7" height="35.4"/>
    <rect x="37.4" y="41.3" width=".7" height="35.4"/>
    <rect x="29.4" y="41.3" width=".7" height="35.4"/>
    <rect x="21.4" y="41.3" width=".7" height="35.4"/>
    <rect x="13.4" y="41.3" width=".7" height="35.4"/>
    <rect x="5.4" y="41.3" width=".7" height="35.4"/>
    <path d="M75.2,55.8c-7.5,0-14.3-6.4-20.1-19.2l-.2-.4,23.8-13.7-.2,1c0,0-1.1,6.9,1.9,10.8,1.3,1.6,3.1,2.5,5.5,2.7,0,0,1.8-.3,3.9-.3,4.2,0,5.1,1.4,5.1,2.6,0,2.5-8.9,16.5-19.8,16.5ZM56.1,36.6c5.6,12.1,12,18.2,19.1,18.2,10.5,0,18.9-13.8,18.9-15.6s-2.6-1.6-4.2-1.6-3.8.3-3.8.3c-2.8-.2-4.8-1.2-6.3-3-2.6-3.4-2.4-8.5-2.2-10.6l-21.4,12.3Z"/>
    <rect x="50.9" y="35.3" width="3.3" height=".9"/>
    <rect x="53.3" y="31.3" width=".9" height="3.2" transform="translate(-9.3 31.7) rotate(-30.4)"/>
    <rect x="55.3" y="32.3" width="3.2" height=".9" transform="translate(11 79.7) rotate(-75.7)"/>
  </g>
  <g class="st3">
    <path d="M38.3,37.8c-16.3,0-33.1-4.1-33.1-11s16.8-11,33.1-11,33.1,4.1,33.1,11-16.8,11-33.1,11ZM38.3,17.4c-18.8,0-31.5,4.9-31.5,9.4s12.6,9.4,31.5,9.4,31.5-4.9,31.5-9.4c0-4.5-12.6-9.4-31.5-9.4Z"/>
    <rect x="5.3" y="26.8" width="1.6" height="46.4"/>
    <path d="M38.3,84.2c-16.3,0-33.1-4.1-33.1-11h1.6c0,4.5,12.6,9.4,31.5,9.4s31.5-4.9,31.5-9.4v-1h1.6v1c0,6.9-16.8,11-33.1,11Z"/>
    <path d="M70.6,37.8"/>
    <rect x="69.8" y="26.8" width="1.6" height="11"/>
    <polygon points="71.7 72.8 44.8 67.4 55.9 60.1 56.8 61.4 49 66.6 71.4 71.1 90.7 58.2 91.6 59.6 71.7 72.8"/>
    <rect x="85.9" y="54.6" width="1.6" height="6.9" transform="translate(12.8 131.6) rotate(-78.7)"/>
    <polygon points="73.3 65 46.4 59.6 57.4 52.2 58.3 53.5 50.5 58.8 73 63.2 92.3 50.4 93.2 51.7 73.3 65"/>
    <rect x="87.5" y="46.7" width="1.6" height="6.9" transform="translate(21.7 126.8) rotate(-78.7)"/>
    <path d="M74.9,57.1l-26.9-5.4,21.5-14.3,23.9,4.8v.7c-.1,0,.4-.4.4-.4l.9,1.3-19.9,13.2ZM52.1,50.9l22.4,4.5,17.7-11.8-22.4-4.5-17.7,11.8Z"/>
  </g>
  <g>
    <polygon points="94.6 92.5 26.7 92.5 26.7 87 28.5 87 28.5 90.7 92.8 90.7 92.8 25.6 76.5 9.3 28.5 9.3 28.5 20.3 26.7 20.3 26.7 7.5 77.2 7.5 94.6 24.8 94.6 92.5"/>
    <path d="M43.1,91.3c-20.8,0-37.6-16.9-37.6-37.6S22.3,16,43.1,16s37.6,16.9,37.6,37.6-2.6,16-7.5,22.6l-1.4-1.1c4.7-6.2,7.2-13.7,7.2-21.5,0-19.8-16.1-35.9-35.9-35.9S7.2,33.9,7.2,53.7s16.1,35.9,35.9,35.9,14.9-2.4,21.1-6.8l1,1.4c-6.5,4.7-14.1,7.2-22.1,7.2Z"/>
    <path d="M37.4,65c-9.9,0-17.9-8-17.9-17.9s8-17.9,17.9-17.9,17.9,8,17.9,17.9-8,17.9-17.9,17.9ZM37.4,30.1c-9.4,0-17,7.6-17,17s7.6,17,17,17,17-7.6,17-17-7.6-17-17-17Z"/>
    <polygon points="88.3 61.9 79.1 61.9 79.1 60.1 86.5 60.1 86.5 24.1 77.5 24.1 77.5 14.8 33.9 14.8 33.9 18.3 32.1 18.3 32.1 13.1 79.2 13.1 79.2 22.4 88.3 22.4 88.3 61.9"/>
    <polygon points="88.3 86.3 77.9 86.3 77.9 84.5 86.5 84.5 86.5 66.4 77.9 66.4 77.9 64.6 88.3 64.6 88.3 86.3"/>
    <path d="M73.6,89.9h0c-7,0-18.6-18.4-19.1-19.2-1.1-1.5-6.4-8.9-5.4-11,.1-.3.5-.6,1.1-.6,1.6,0,5,2,10.3,6.1,15.6,12,18,16.5,18,18.1,0,.4,0,.6-.2.7-.7,3.9-2.3,5.9-4.7,5.9ZM50.2,59.9c-.3,0-.3,0-.4.1-.6,1.2,2.8,6.6,5.3,10.1.1.2,11.9,18.8,18.4,18.8h0c1.9,0,3.2-1.8,3.8-5.3v-.2s.2-.1.2-.1h0s1.5-2.9-17.6-17.6c-6.3-4.9-8.8-5.9-9.7-5.9Z"/>
    <rect x="52.3" y="65.1" width="6.5" height="1.8" transform="translate(-30.7 63.5) rotate(-48.2)"/>
    <rect x="53.6" y="66.8" width="7.3" height="1.8" transform="translate(-31.4 66.9) rotate(-49.3)"/>
    <path d="M14.3,72.5c-.5,0-1.2-.1-1.9-.4l.3-.8c.9.3,2.1.5,2.7,0,.8-.8.4-2.7.1-3.3l-.2-.6h.6c.8,0,1.9-.2,2.1-.8.5-1.4-3.1-4.8-5.5-6.7l-.2-.2v-.3c2.7-7.7-3.2-17.7-3.2-17.8l.8-.5c.2.4,6,10.2,3.5,18.3,1.5,1.2,6.3,5.2,5.5,7.4-.2.8-1,1.2-2.4,1.3.2.9.5,2.7-.5,3.7-.4.4-1,.6-1.7.6Z"/>
    <path d="M28,31.1h-.9v-2.9c0-.3,0-.6-.3-.7-1.3-1.1-5.9-.2-7.6.2l-.2-.9c.7-.2,6.4-1.6,8.3,0,.5.4.7.9.7,1.4v2.9Z"/>
    <path d="M62,40.3l-.3-.8c2.1-.7,3.2-1.6,3.3-2.6.1-1.3-1.6-2.8-2.7-3.4-1.7,3.5-2.5,3.9-3.1,3.8-.9-.2-1-2.1-.9-3.2.2-2.4,1-3.9,2.3-4.4,2.4-1,5.7,1.7,6.3,2.2.4,0,.6,0,.7-.2.6-.6.7-2.3.6-2.8h.9c0,.2.2,2.5-.9,3.5-.3.3-.8.5-1.6.4h-.1s0-.1,0-.1c-.9-.8-3.7-2.8-5.5-2.1-1,.4-1.6,1.6-1.8,3.7,0,1,0,2.1.3,2.2,0,0,.6-.2,2.2-3.7l.2-.4.4.2c.2,0,3.7,2.2,3.5,4.6-.1,1.4-1.4,2.5-3.9,3.3Z"/>
    <path d="M68.1,58.3l-4.1-.6c-.9.6-1.8.7-2.7.4-2.9-.8-5-5.8-5.1-6l.8-.3s2,4.7,4.5,5.5c.7.2,1.4,0,2.1-.4h.1c0-.1,4.2.5,4.2.5.6-.4,2.7-1.9,2.5-3.6-.1-1.2-1.6-2.4-4.3-3.3h-.2c0,0,0-.2,0-.2,0,0-1.9-4.1-4.4-4.9-.8-.2-1.6-.1-2.3.3h-.2c0,.1-.2,0-.2,0-.4-.3-3.7-2.5-3.5-4.4v-.2s.1-.1.1-.1c.1-.1,2.9-2.5,5.2-2.3.9.1,1.6.5,2.1,1.3l-.7.5c-.4-.5-.8-.8-1.5-.9-1.7-.2-3.8,1.4-4.4,1.9.1,1,1.7,2.4,2.9,3.2.9-.5,1.9-.6,2.8-.3,2.6.8,4.5,4.3,4.9,5.2,3,1.1,4.6,2.4,4.8,4,.3,2.5-3,4.5-3.1,4.5h-.1Z"/>
    <path d="M37.4,62.6c-8.6,0-15.5-7-15.5-15.5s7-15.5,15.5-15.5,15.5,7,15.5,15.5-7,15.5-15.5,15.5ZM37.4,32.5c-8.1,0-14.6,6.6-14.6,14.6s6.6,14.6,14.6,14.6,14.6-6.6,14.6-14.6c0-8.1-6.6-14.6-14.6-14.6Z"/>
  </g>
</svg>